<?xml version="1.0" standalone="no"?>
<!DOCTYPE svg PUBLIC "-//W3C//DTD SVG 20010904//EN"
 "http://www.w3.org/TR/2001/REC-SVG-20010904/DTD/svg10.dtd">
<svg version="1.0" xmlns="http://www.w3.org/2000/svg"
 width="2000.000000pt" height="2000.000000pt" viewBox="0 0 2000.000000 2000.000000"
 preserveAspectRatio="xMidYMid meet">
<metadata>
Created by potrace 1.14, written by Peter Selinger 2001-2017
</metadata>
<g transform="translate(0.000000,2000.000000) scale(0.100000,-0.100000)"
fill="#000000" stroke="none">
<path d="M9815 19523 c-1994 -31 -3964 -714 -5565 -1929 -1022 -775 -1883
-1754 -2521 -2866 -123 -214 -352 -667 -446 -883 -419 -958 -674 -1940 -767
-2960 -51 -553 -51 -1217 0 -1770 146 -1590 693 -3120 1592 -4450 735 -1089
1735 -2053 2852 -2750 441 -276 987 -553 1476 -750 1439 -581 2973 -796 4554
-639 349 34 790 107 1144 189 1751 404 3333 1281 4601 2551 1271 1272 2146
2850 2549 4596 163 707 237 1374 237 2138 0 825 -87 1548 -282 2325 -626 2501
-2260 4654 -4511 5946 -216 124 -667 352 -888 449 -1278 559 -2608 825 -4025
803z m-1985 -5044 c312 -28 548 -88 829 -212 465 -206 869 -567 1203 -1079 97
-148 105 -157 135 -157 30 -1 37 5 70 60 58 95 179 264 260 366 469 586 1050
922 1753 1015 152 20 570 17 715 -6 711 -109 1271 -461 1647 -1036 76 -115
206 -373 262 -517 153 -397 214 -805 203 -1377 -9 -499 -69 -859 -217 -1296
-250 -745 -682 -1467 -1307 -2187 -245 -283 -715 -754 -1204 -1209 -119 -111
-818 -740 -1149 -1033 -277 -246 -795 -755 -925 -908 -64 -76 -73 -83 -106
-83 -34 0 -44 8 -149 128 -229 258 -577 590 -1270 1213 -382 344 -774 699
-870 789 -260 243 -920 906 -1049 1055 -583 669 -982 1296 -1249 1965 -170
425 -252 760 -304 1230 -20 181 -16 741 6 920 50 413 128 690 285 1015 136
280 268 471 461 666 272 274 550 443 932 568 144 47 379 96 518 109 136 13
386 14 520 1z"/>
</g>
</svg>
